<?xml version="1.0" standalone="no"?>
<!DOCTYPE svg PUBLIC "-//W3C//DTD SVG 20010904//EN"
 "http://www.w3.org/TR/2001/REC-SVG-20010904/DTD/svg10.dtd">
<svg version="1.0" xmlns="http://www.w3.org/2000/svg"
 width="1461.000000pt" height="1461.000000pt" viewBox="0 0 1461.000000 1461.000000"
 preserveAspectRatio="xMidYMid meet">
<metadata>
Created by potrace 1.11, written by Peter Selinger 2001-2013
</metadata>
<g transform="translate(0.000000,1461.000000) scale(0.100000,-0.100000)"
fill="#000000" stroke="none">
<path d="M5535 13390 c-4 -7 -31 -8 -71 -4 -43 5 -64 3 -64 -4 0 -7 -13 -9
-35 -5 -22 4 -35 2 -35 -5 0 -7 -11 -9 -30 -5 -19 3 -30 1 -30 -6 0 -7 -9 -9
-25 -5 -14 3 -25 2 -25 -4 0 -6 -9 -8 -20 -5 -11 3 -20 0 -20 -6 0 -7 -9 -9
-25 -5 -15 4 -25 2 -25 -5 0 -6 -11 -8 -30 -4 -16 3 -30 1 -30 -4 0 -5 -20
-14 -45 -21 -25 -7 -45 -16 -45 -22 0 -5 -7 -7 -15 -4 -8 4 -15 1 -15 -5 0 -6
-6 -8 -14 -5 -7 3 -20 -1 -27 -9 -8 -7 -20 -12 -28 -9 -9 3 -11 0 -6 -8 5 -8
4 -11 -3 -6 -12 7 -62 -13 -62 -26 0 -5 -4 -6 -10 -3 -5 3 -10 1 -10 -5 0 -6
-4 -8 -10 -5 -5 3 -10 1 -10 -5 0 -6 -4 -8 -10 -5 -5 3 -10 1 -10 -4 0 -6 -3
-10 -7 -9 -16 5 -72 -25 -66 -35 3 -5 1 -7 -4 -4 -24 15 -261 -161 -388 -288
-127 -127 -303 -364 -288 -388 3 -5 1 -7 -5 -3 -10 6 -28 -30 -24 -46 1 -5 -3
-8 -9 -8 -5 0 -7 -4 -4 -10 3 -5 1 -10 -5 -10 -6 0 -8 -4 -5 -10 3 -5 1 -10
-5 -10 -6 0 -8 -4 -5 -10 3 -5 1 -10 -5 -10 -6 0 -8 -4 -5 -10 3 -5 1 -10 -5
-10 -6 0 -8 -4 -5 -10 3 -5 1 -10 -6 -10 -7 0 -10 -3 -6 -6 3 -4 -1 -13 -9
-21 -8 -9 -13 -22 -10 -29 3 -8 1 -14 -5 -14 -6 0 -7 -4 -4 -10 3 -5 1 -10 -5
-10 -7 0 -10 -6 -8 -12 3 -7 -2 -19 -9 -27 -8 -7 -12 -20 -9 -27 3 -8 1 -14
-5 -14 -6 0 -9 -7 -5 -15 3 -8 1 -15 -5 -15 -6 0 -9 -6 -6 -14 3 -8 1 -16 -5
-18 -6 -2 -11 -18 -12 -36 0 -18 -5 -32 -10 -32 -4 0 -6 -9 -3 -20 3 -11 1
-20 -5 -20 -6 0 -8 -9 -5 -20 3 -11 1 -20 -5 -20 -6 0 -8 -11 -6 -25 3 -14 1
-25 -5 -25 -5 0 -7 -13 -3 -30 3 -19 1 -30 -6 -30 -7 0 -9 -13 -5 -35 4 -22 2
-35 -5 -35 -7 0 -9 -18 -4 -55 4 -35 2 -55 -4 -55 -6 0 -10 -44 -10 -115 0
-71 4 -115 10 -115 6 0 8 -20 4 -55 -5 -37 -3 -55 4 -55 7 0 9 -13 5 -35 -4
-22 -2 -35 5 -35 7 0 9 -11 6 -30 -4 -17 -2 -30 3 -30 6 0 8 -11 5 -25 -2 -14
0 -25 6 -25 6 0 8 -9 5 -20 -3 -11 -1 -20 5 -20 6 0 8 -9 5 -20 -3 -11 -1 -20
3 -20 5 0 10 -14 10 -32 1 -18 6 -34 12 -36 6 -2 8 -10 5 -18 -3 -8 0 -14 6
-14 6 0 8 -7 5 -15 -4 -8 -1 -15 5 -15 6 0 8 -6 5 -14 -3 -7 1 -20 9 -27 7 -8
12 -20 9 -27 -2 -6 1 -12 8 -12 6 0 8 -4 5 -10 -3 -5 -1 -10 5 -10 6 0 9 -4 5
-9 -7 -12 15 -61 27 -61 5 0 6 -4 3 -10 -3 -5 -1 -10 5 -10 6 0 8 -4 5 -10 -3
-5 -1 -10 5 -10 6 0 8 -4 5 -10 -3 -5 -1 -10 5 -10 6 0 8 -4 5 -10 -3 -5 -1
-10 5 -10 6 0 8 -4 5 -10 -3 -5 -1 -10 4 -10 6 0 10 -3 9 -7 -4 -17 14 -53 24
-47 6 4 8 2 5 -3 -15 -24 161 -261 288 -388 127 -127 364 -303 388 -288 5 3 7
1 4 -4 -6 -10 50 -40 66 -35 4 1 7 -3 7 -9 0 -5 5 -7 10 -4 6 3 10 1 10 -5 0
-6 5 -8 10 -5 6 3 10 1 10 -5 0 -6 5 -8 10 -5 6 3 10 2 10 -3 0 -13 50 -33 62
-26 7 5 8 2 3 -6 -5 -8 -3 -11 6 -8 8 3 20 -2 28 -9 7 -8 20 -12 27 -9 8 3 14
1 14 -5 0 -6 7 -9 15 -5 8 3 15 1 15 -4 0 -12 67 -33 80 -25 5 3 10 1 10 -5 0
-7 7 -10 15 -6 8 3 15 0 15 -5 0 -6 9 -9 20 -6 11 3 20 1 20 -5 0 -5 9 -6 20
-3 12 4 20 2 20 -5 0 -7 8 -10 20 -7 11 3 20 1 20 -5 0 -6 11 -7 25 -4 16 4
25 2 25 -5 0 -7 11 -9 30 -5 19 3 30 1 30 -6 0 -7 13 -9 35 -5 22 4 35 2 35
-5 0 -7 21 -9 64 -4 40 4 67 3 71 -4 8 -13 152 -13 160 0 4 7 28 8 66 4 41 -5
59 -3 59 5 0 8 13 9 40 5 26 -4 40 -3 40 4 0 7 11 9 30 6 17 -4 30 -2 30 3 0
6 11 8 25 5 14 -2 25 0 25 6 0 6 9 8 20 5 11 -3 20 -1 20 5 0 6 9 8 20 5 11
-3 20 -1 20 5 0 6 9 8 20 5 11 -3 20 0 20 6 0 5 7 8 15 5 8 -4 15 -1 15 5 0 6
7 8 15 5 8 -4 15 -1 15 5 0 6 7 8 15 5 8 -4 15 -1 15 5 0 6 7 8 15 5 8 -4 15
-1 15 5 0 6 6 8 14 5 7 -3 20 1 27 9 8 7 19 12 25 10 7 -2 18 2 25 10 8 7 20
12 28 9 9 -3 11 0 6 8 -5 8 -4 11 3 6 13 -8 152 60 152 74 0 6 3 9 8 8 16 -4
52 14 46 24 -4 6 -3 8 3 5 10 -6 119 64 203 131 72 58 220 204 215 213 -3 4 0
11 6 15 8 5 10 2 5 -7 -4 -8 6 2 22 21 17 19 28 39 25 44 -4 5 -1 6 5 2 11 -7
38 32 34 47 -1 5 1 6 6 3 9 -5 105 131 105 151 0 7 4 13 8 13 12 0 40 56 32
64 -4 3 -1 6 5 6 16 0 64 98 56 112 -5 7 -3 8 6 3 8 -5 11 -3 8 6 -3 8 2 20 9
28 8 7 12 20 9 28 -4 9 -2 11 6 7 8 -5 9 -2 5 9 -4 10 -2 17 4 17 6 0 8 7 5
16 -3 8 -2 12 4 9 9 -6 14 10 13 42 0 6 5 9 12 7 7 -3 12 -11 12 -17 -1 -32 4
-48 13 -42 6 3 7 -1 4 -9 -3 -9 -1 -16 5 -16 6 0 8 -7 5 -15 -4 -8 -1 -15 5
-15 6 0 8 -7 5 -15 -4 -8 -1 -15 5 -15 6 0 8 -7 5 -15 -4 -8 -1 -15 5 -15 6 0
8 -7 5 -15 -4 -8 -1 -15 5 -15 6 0 8 -7 5 -15 -4 -8 -1 -15 5 -15 6 0 8 -7 5
-15 -4 -8 -1 -15 5 -15 6 0 8 -7 5 -15 -4 -8 -1 -15 5 -15 6 0 8 -7 5 -15 -4
-8 -2 -15 2 -15 5 0 10 -14 10 -32 1 -18 6 -34 12 -36 6 -2 8 -10 5 -18 -3 -8
-1 -14 5 -14 6 0 8 -9 5 -20 -3 -11 0 -20 6 -20 5 0 8 -7 5 -15 -4 -8 -2 -15
4 -15 6 0 8 -9 5 -20 -3 -11 -1 -20 5 -20 6 0 8 -9 5 -20 -3 -11 -1 -20 5 -20
6 0 8 -9 5 -20 -3 -11 0 -20 6 -20 5 0 8 -7 5 -15 -4 -8 -1 -15 6 -15 7 0 9
-8 5 -20 -4 -12 -2 -20 5 -20 6 0 8 -10 4 -25 -3 -14 -2 -25 4 -25 6 0 8 -9 5
-20 -3 -11 -1 -20 5 -20 6 0 8 -9 5 -20 -3 -11 -1 -20 5 -20 6 0 8 -9 5 -20
-3 -11 0 -20 6 -20 7 0 9 -9 5 -25 -3 -14 -2 -25 4 -25 5 0 7 -11 4 -25 -2
-14 0 -25 6 -25 6 0 8 -9 5 -20 -3 -11 0 -20 6 -20 7 0 9 -9 5 -25 -4 -15 -2
-25 5 -25 6 0 8 -11 5 -30 -4 -17 -2 -30 3 -30 6 0 8 -11 5 -25 -2 -14 0 -25
5 -25 6 0 8 -11 5 -25 -2 -14 0 -25 7 -25 6 0 8 -11 4 -30 -3 -17 -1 -30 4
-30 5 0 8 -13 5 -30 -2 -16 0 -30 5 -30 5 0 8 -13 5 -30 -2 -16 0 -30 5 -30 5
0 8 -14 5 -30 -2 -18 0 -30 7 -30 6 0 8 -11 5 -30 -4 -18 -2 -30 4 -30 7 0 9
-13 5 -35 -3 -22 -2 -35 5 -35 7 0 9 -13 5 -35 -4 -23 -2 -35 6 -35 8 0 9 -13
5 -40 -4 -25 -3 -40 4 -40 6 0 8 -16 5 -40 -4 -24 -2 -40 5 -40 6 0 8 -16 5
-40 -4 -26 -2 -40 5 -40 8 0 10 -15 5 -45 -4 -30 -2 -45 5 -45 8 0 10 -15 6
-44 -4 -24 -2 -46 3 -49 6 -4 8 -29 5 -57 -3 -31 -1 -50 6 -50 7 0 9 -20 5
-55 -4 -35 -2 -55 5 -55 6 0 8 -21 5 -60 -4 -40 -2 -60 5 -60 8 0 9 -20 5 -64
-3 -40 -2 -66 5 -70 7 -4 8 -33 5 -81 -4 -50 -2 -75 5 -75 7 0 9 -31 5 -95 -4
-65 -3 -95 5 -95 7 0 9 -34 5 -110 -4 -73 -2 -114 5 -123 8 -9 9 -58 5 -155
l-6 -142 -104 0 c-65 0 -103 -4 -103 -11 0 -7 -28 -8 -85 -3 -62 5 -85 4 -85
-5 0 -8 -14 -10 -49 -5 -29 4 -51 2 -55 -4 -3 -6 -24 -8 -46 -5 -25 4 -40 2
-40 -5 0 -7 -13 -9 -35 -5 -20 3 -35 1 -35 -4 0 -6 -11 -8 -25 -5 -14 2 -25 0
-25 -7 0 -6 -11 -8 -30 -4 -17 3 -30 1 -30 -4 0 -6 -11 -8 -25 -5 -14 2 -25 0
-25 -5 0 -6 -11 -8 -25 -5 -14 2 -25 0 -25 -6 0 -6 -9 -8 -20 -5 -11 3 -20 1
-20 -5 0 -6 -9 -8 -20 -5 -11 3 -20 1 -20 -5 0 -6 -9 -8 -20 -5 -11 3 -20 1
-20 -5 0 -6 -9 -8 -20 -5 -11 3 -20 0 -20 -6 0 -5 -7 -8 -15 -5 -8 4 -15 1
-15 -5 0 -6 -7 -8 -15 -5 -8 4 -15 2 -15 -2 0 -5 -14 -10 -32 -10 -18 -1 -34
-6 -36 -12 -2 -6 -10 -8 -18 -5 -8 3 -14 0 -14 -7 0 -6 -4 -9 -9 -6 -11 7 -71
-13 -71 -25 0 -4 -7 -6 -15 -3 -8 4 -15 1 -15 -5 0 -6 -6 -8 -14 -5 -7 3 -20
-1 -27 -9 -8 -7 -19 -12 -25 -10 -7 2 -18 -3 -27 -11 -8 -8 -17 -12 -21 -9 -3
4 -6 1 -6 -6 0 -7 -4 -10 -9 -6 -12 7 -61 -15 -61 -27 0 -5 -4 -6 -10 -3 -5 3
-10 1 -10 -5 0 -6 -4 -9 -9 -6 -14 9 -42 -5 -34 -17 3 -5 1 -7 -5 -3 -13 8
-83 -24 -76 -36 3 -4 -2 -5 -10 -2 -8 3 -24 -4 -35 -15 -12 -12 -23 -21 -26
-20 -15 3 -64 -24 -59 -32 3 -5 2 -8 -3 -7 -17 4 -53 -14 -47 -24 4 -7 2 -8
-4 -4 -6 4 -20 -1 -30 -11 -10 -10 -25 -19 -32 -21 -22 -5 -192 -125 -197
-139 -3 -7 -8 -11 -13 -8 -4 2 -58 -38 -121 -90 -117 -96 -209 -178 -174 -154
18 13 19 13 6 -3 -7 -10 -16 -16 -20 -13 -9 5 -213 -199 -206 -207 3 -3 -3
-11 -12 -19 -17 -13 -17 -12 -4 6 8 11 -7 -2 -32 -30 -25 -27 -43 -53 -41 -57
2 -4 -1 -10 -7 -14 -8 -4 -9 -3 -5 4 4 7 5 12 3 12 -9 0 -102 -124 -99 -132 1
-5 -2 -7 -7 -3 -10 6 -37 -34 -33 -48 1 -5 -1 -6 -6 -3 -9 6 -195 -241 -195
-260 0 -8 -3 -12 -5 -9 -9 8 -122 -168 -115 -178 3 -6 2 -7 -4 -4 -5 3 -17 -7
-27 -24 -9 -16 -15 -29 -12 -29 3 0 -3 -9 -14 -20 -12 -12 -18 -26 -14 -32 4
-6 3 -8 -4 -4 -10 6 -28 -30 -24 -47 1 -5 -2 -6 -7 -3 -9 6 -27 -31 -23 -47 1
-5 -2 -6 -7 -3 -9 6 -27 -31 -23 -47 1 -5 -2 -6 -7 -3 -9 6 -27 -31 -23 -46 1
-5 -2 -8 -8 -8 -12 0 -51 -75 -43 -84 4 -3 1 -6 -5 -6 -14 0 -54 -75 -45 -84
4 -3 1 -6 -6 -6 -7 0 -10 -4 -7 -9 3 -5 -1 -12 -10 -15 -9 -4 -14 -13 -10 -22
3 -8 2 -13 -2 -10 -11 7 -204 -383 -196 -396 5 -7 2 -8 -6 -3 -10 6 -12 4 -7
-8 3 -10 2 -17 -4 -17 -6 0 -7 -4 -4 -10 3 -5 1 -10 -5 -10 -6 0 -8 -4 -5 -10
3 -5 2 -10 -3 -10 -13 0 -43 -70 -36 -82 5 -7 2 -8 -6 -3 -10 6 -12 4 -7 -8 3
-10 2 -17 -4 -17 -6 0 -7 -4 -4 -10 3 -5 2 -10 -3 -10 -13 0 -33 -50 -26 -62
5 -7 2 -8 -6 -3 -10 6 -12 4 -7 -8 3 -10 3 -17 -2 -17 -12 0 -32 -50 -25 -62
5 -7 2 -8 -6 -3 -10 6 -12 4 -7 -8 3 -10 3 -17 -2 -17 -11 0 -32 -50 -26 -61
4 -5 1 -9 -6 -9 -7 0 -10 -3 -6 -6 3 -4 -1 -13 -9 -21 -8 -9 -13 -22 -10 -29
3 -8 0 -14 -6 -14 -6 0 -9 -3 -5 -6 3 -4 -1 -13 -9 -21 -8 -9 -13 -22 -10 -29
3 -8 0 -14 -6 -14 -6 0 -9 -3 -5 -6 3 -4 -1 -13 -9 -21 -8 -9 -13 -20 -11 -27
2 -6 -3 -17 -10 -25 -8 -7 -12 -20 -9 -28 4 -9 1 -11 -5 -7 -7 4 -10 1 -7 -7
3 -8 -2 -20 -9 -28 -8 -7 -12 -18 -10 -25 2 -6 -3 -17 -10 -25 -8 -7 -12 -20
-9 -28 4 -9 1 -11 -5 -7 -7 4 -10 1 -7 -7 3 -8 -2 -20 -9 -28 -8 -7 -12 -21
-9 -30 4 -10 -1 -8 -13 6 -10 12 -22 19 -26 15 -5 -4 -5 -2 -2 4 18 32 -374
417 -405 398 -4 -3 -8 -1 -8 5 0 11 -49 48 -70 53 -7 2 -22 11 -32 21 -10 10
-24 15 -30 11 -6 -4 -8 -3 -5 3 6 10 -50 40 -65 35 -5 -1 -8 3 -8 9 0 5 -4 7
-10 4 -5 -3 -10 -1 -10 5 0 6 -5 8 -10 5 -6 -3 -10 -1 -10 5 0 6 -5 8 -10 5
-5 -3 -10 -1 -10 5 0 6 -4 8 -10 5 -5 -3 -10 -1 -10 6 0 7 -3 10 -6 6 -4 -3
-13 1 -21 9 -9 8 -22 13 -29 10 -8 -3 -14 -1 -14 5 0 6 -5 7 -10 4 -6 -3 -10
-1 -10 5 0 7 -6 10 -12 8 -7 -3 -19 2 -27 9 -7 8 -20 12 -27 9 -8 -3 -14 -1
-14 5 0 6 -7 9 -15 5 -8 -3 -15 -1 -15 5 0 6 -7 9 -15 5 -8 -3 -15 -1 -15 5 0
6 -7 9 -15 5 -8 -3 -15 0 -15 5 0 6 -9 9 -20 6 -11 -3 -20 -1 -20 5 0 6 -9 8
-20 5 -11 -3 -20 -1 -20 5 0 6 -9 8 -20 5 -11 -3 -20 -1 -20 5 0 6 -11 7 -25
4 -16 -4 -25 -2 -25 5 0 7 -9 9 -25 5 -16 -4 -25 -2 -25 5 0 8 -12 10 -35 6
-22 -4 -35 -2 -35 5 0 7 -17 8 -50 4 -32 -4 -50 -3 -50 4 0 6 -50 10 -140 10
-90 0 -140 -4 -140 -10 0 -7 -18 -8 -50 -4 -33 4 -50 3 -50 -4 0 -7 -13 -9
-35 -5 -23 4 -35 2 -35 -6 0 -7 -9 -9 -25 -5 -16 4 -25 2 -25 -5 0 -7 -9 -9
-25 -5 -14 3 -25 2 -25 -4 0 -6 -9 -8 -20 -5 -11 3 -20 1 -20 -5 0 -6 -9 -8
-20 -5 -11 3 -20 1 -20 -3 0 -5 -14 -10 -32 -10 -18 -1 -34 -6 -36 -12 -2 -6
-10 -8 -18 -5 -8 3 -14 0 -14 -6 0 -6 -7 -8 -15 -5 -8 4 -15 1 -15 -5 0 -6 -6
-8 -14 -5 -7 3 -20 -1 -27 -9 -8 -7 -19 -12 -25 -10 -7 2 -18 -3 -27 -11 -8
-8 -17 -13 -20 -10 -7 7 -57 -18 -57 -28 0 -5 -4 -6 -10 -3 -5 3 -10 1 -10 -5
0 -6 -4 -8 -10 -5 -5 3 -10 1 -10 -5 0 -6 -4 -8 -10 -5 -5 3 -10 1 -10 -5 0
-6 -4 -8 -10 -5 -5 3 -10 1 -10 -6 0 -7 -3 -10 -6 -6 -9 8 -64 -21 -64 -34 0
-6 -4 -8 -10 -4 -5 3 -18 -3 -29 -14 -11 -11 -21 -17 -23 -15 -8 8 -98 -63
-91 -71 5 -4 3 -5 -4 -1 -23 13 -233 -177 -347 -314 -75 -91 -133 -171 -138
-190 -2 -7 -11 -22 -21 -32 -10 -10 -15 -23 -12 -28 4 -6 2 -10 -4 -10 -13 0
-42 -55 -34 -64 4 -3 1 -6 -6 -6 -7 0 -9 -4 -6 -10 3 -5 1 -10 -5 -10 -6 0 -8
-5 -5 -10 3 -6 1 -10 -5 -10 -6 0 -8 -4 -5 -10 3 -5 1 -10 -5 -10 -6 0 -8 -4
-5 -10 3 -5 2 -10 -3 -10 -13 0 -33 -50 -26 -62 5 -7 2 -8 -6 -3 -10 6 -12 4
-7 -8 4 -10 2 -17 -4 -17 -6 0 -8 -7 -5 -16 3 -8 2 -12 -4 -9 -9 6 -14 -10
-13 -42 1 -7 -4 -13 -9 -13 -6 0 -8 -7 -4 -15 3 -8 1 -15 -5 -15 -6 0 -9 -7
-5 -15 3 -8 1 -15 -5 -15 -6 0 -9 -7 -5 -15 3 -8 0 -15 -5 -15 -6 0 -9 -9 -6
-20 3 -11 1 -20 -5 -20 -6 0 -8 -7 -4 -15 3 -8 1 -15 -5 -15 -7 0 -9 -10 -5
-25 4 -16 2 -25 -5 -25 -6 0 -9 -9 -6 -20 3 -11 0 -20 -5 -20 -6 0 -8 -12 -5
-30 4 -19 2 -30 -5 -30 -6 0 -8 -11 -5 -30 4 -19 2 -30 -5 -30 -7 0 -8 -16 -4
-50 4 -32 3 -50 -4 -50 -6 0 -10 -55 -10 -155 0 -95 4 -155 10 -155 6 0 7 -18
3 -45 -4 -31 -2 -45 6 -45 7 0 9 -9 5 -24 -3 -14 -2 -31 2 -38 5 -7 7 -23 5
-35 -1 -13 2 -23 7 -23 5 0 7 -11 4 -25 -2 -14 0 -25 6 -25 6 0 8 -9 5 -20 -3
-11 -1 -20 5 -20 6 0 8 -9 5 -20 -3 -11 0 -20 6 -20 5 0 8 -7 5 -15 -4 -8 -1
-15 5 -15 6 0 8 -7 5 -15 -4 -8 -1 -15 5 -15 6 0 8 -7 5 -15 -4 -8 -1 -15 5
-15 6 0 8 -7 5 -15 -4 -8 -1 -15 5 -15 6 0 8 -7 5 -15 -4 -8 -1 -15 5 -15 6 0
8 -6 5 -14 -3 -7 1 -20 9 -27 7 -8 12 -19 10 -25 -2 -7 3 -18 11 -27 8 -8 12
-17 9 -21 -4 -3 -1 -6 6 -6 7 0 10 -4 6 -10 -8 -13 42 -110 57 -110 6 0 9 -3
5 -6 -8 -9 21 -64 33 -64 6 0 9 -3 9 -7 -3 -19 2 -34 9 -29 5 3 9 -1 9 -9 0
-26 119 -180 223 -288 118 -123 257 -240 273 -230 5 3 7 1 4 -4 -6 -10 16 -26
28 -20 2 1 11 -7 19 -18 9 -11 16 -17 16 -12 0 4 9 -2 20 -13 12 -12 26 -18
32 -14 6 4 8 3 4 -4 -6 -10 30 -28 47 -24 4 1 7 -2 7 -8 0 -14 119 -72 132
-64 7 5 8 2 3 -6 -6 -10 -4 -12 8 -7 10 3 17 2 17 -4 0 -6 5 -7 10 -4 6 3 10
1 10 -5 0 -7 7 -9 16 -6 10 4 13 2 8 -6 -5 -8 -2 -9 9 -5 10 3 17 2 17 -4 0
-6 6 -9 12 -7 7 3 19 -2 27 -9 7 -8 20 -12 27 -9 8 3 14 1 14 -5 0 -6 7 -9 15
-5 8 3 15 0 15 -5 0 -6 9 -9 20 -6 11 3 20 1 20 -5 0 -6 7 -8 15 -4 8 3 15 0
15 -5 0 -6 9 -9 20 -6 11 3 20 1 20 -5 0 -6 9 -8 20 -5 11 3 20 1 20 -5 0 -6
9 -8 20 -5 11 3 20 0 20 -5 0 -6 12 -8 30 -5 19 4 30 2 30 -5 0 -6 11 -8 30
-4 19 3 30 1 30 -6 0 -7 15 -9 45 -5 25 4 45 3 45 -1 0 -10 335 -10 345 -1 3
4 24 5 46 2 25 -4 39 -2 39 5 0 7 11 9 30 6 19 -4 30 -2 30 4 0 7 11 9 30 5
18 -3 30 -1 30 5 0 5 9 8 20 5 11 -3 20 -1 20 5 0 6 9 8 20 5 11 -3 20 -1 20
5 0 6 9 8 20 5 11 -3 20 -1 20 3 0 5 14 10 32 10 18 1 34 6 36 12 2 6 10 8 18
5 8 -3 14 -1 14 5 0 5 6 10 13 9 32 -1 48 4 42 13 -3 6 1 7 9 4 9 -3 16 -1 16
5 0 6 6 8 14 5 7 -3 20 2 29 10 8 8 17 12 21 9 3 -4 6 -1 6 6 0 7 4 10 10 6
12 -7 150 62 150 76 0 5 5 7 10 4 6 -3 10 -1 10 4 0 6 3 10 8 10 20 -3 32 2
26 13 -4 7 -3 8 4 4 6 -4 20 1 30 11 10 10 25 19 33 21 8 2 21 11 29 20 8 10
19 18 24 19 18 1 135 97 129 106 -3 6 -1 7 5 3 14 -8 214 192 205 207 -3 6 -1
7 5 3 10 -6 36 27 37 46 0 3 4 10 9 15 5 5 6 3 2 -4 -4 -7 -5 -13 -3 -13 2 0
23 27 46 60 23 33 39 60 35 60 -4 0 1 7 12 15 10 8 16 15 11 15 -4 0 2 9 13
20 12 12 18 26 14 32 -4 6 -3 8 4 4 10 -6 28 30 24 47 -1 4 2 7 8 7 14 0 72
119 64 132 -5 7 -3 8 6 3 8 -5 11 -3 8 6 -3 8 2 20 9 28 8 7 12 20 9 28 -4 9
-2 11 6 7 8 -5 9 -2 5 9 -4 10 -2 17 4 17 6 0 8 7 5 16 -4 10 -2 13 6 8 8 -5
9 -2 5 10 -4 9 -3 15 2 12 11 -7 23 22 14 36 -3 6 -2 8 4 5 12 -8 46 61 37 75
-5 7 -2 8 6 3 10 -6 12 -4 7 9 -4 9 -3 15 2 12 11 -7 23 22 15 35 -3 5 0 9 6
9 6 0 8 5 5 10 -3 6 -1 10 5 10 6 0 8 5 5 10 -3 6 -2 10 3 10 13 0 43 70 36
82 -5 7 -2 8 6 3 10 -6 12 -4 7 8 -3 10 -2 17 4 17 6 0 7 4 4 10 -3 5 -2 10 3
10 12 0 34 49 27 61 -4 5 -1 9 6 9 7 0 10 3 6 6 -3 4 1 13 9 21 8 9 13 22 10
30 -4 9 -2 11 6 7 8 -5 9 -2 5 9 -3 10 -3 17 2 17 10 0 34 51 27 57 -3 3 2 12
10 20 8 9 13 22 10 30 -4 9 -1 11 5 7 7 -4 10 -1 7 7 -3 8 2 20 9 28 8 7 12
20 9 27 -3 8 0 14 6 14 6 0 9 3 5 6 -3 4 1 13 9 21 8 9 13 20 11 27 -2 6 3 17
10 25 8 7 12 20 9 27 -3 8 -1 14 5 14 6 0 7 5 4 10 -3 6 -1 10 5 10 7 0 9 7 6
16 -4 9 -2 13 5 8 7 -4 10 -1 7 7 -3 8 2 20 9 28 8 7 12 18 10 25 -2 6 3 17
10 25 8 7 12 18 10 25 -2 6 3 17 10 25 8 7 12 20 9 27 -3 8 -1 14 5 14 6 0 7
5 4 10 -3 6 -1 10 5 10 7 0 9 7 6 16 -4 9 -2 13 5 8 7 -4 10 -1 7 7 -3 8 2 20
9 28 8 7 12 18 10 25 -2 6 3 17 10 25 8 7 12 18 10 25 -2 6 3 17 10 25 8 7 12
18 10 25 -2 6 3 17 10 25 8 7 12 20 9 28 -4 9 -1 11 5 7 7 -4 10 -1 7 7 -3 8
2 20 9 28 8 7 12 18 10 25 -2 6 3 17 10 25 8 7 12 18 10 25 -2 6 3 17 10 25 8
7 12 20 9 28 -4 9 -1 11 5 7 7 -4 10 -1 7 7 -3 8 2 20 9 28 8 7 12 18 10 25
-2 6 3 17 10 25 8 7 12 20 9 28 -4 9 -1 11 5 7 7 -4 10 -1 7 7 -3 8 2 20 9 28
8 7 12 20 9 27 -3 8 -2 14 3 14 11 0 32 50 26 61 -4 5 -2 9 3 9 12 0 34 49 27
61 -4 5 -1 9 6 9 7 0 10 3 6 6 -3 4 1 13 9 21 8 9 13 22 10 30 -4 9 -2 11 6 7
8 -5 9 -2 5 9 -3 10 -3 17 2 17 11 0 32 50 26 61 -4 5 -1 9 5 9 6 0 8 5 5 10
-3 5 -2 10 3 10 13 0 33 50 26 62 -5 7 -2 8 6 3 10 -6 12 -4 7 8 -3 10 -2 17
4 17 6 0 7 5 4 10 -3 6 -2 10 3 10 13 0 43 70 36 82 -5 7 -2 8 6 3 10 -6 12
-4 7 8 -3 10 -2 17 4 17 6 0 7 5 4 10 -3 6 -1 10 5 10 6 0 9 4 6 9 -4 5 -2 11
3 13 13 5 171 325 164 332 -4 3 -1 6 6 6 7 0 9 4 6 10 -3 5 -1 10 5 10 6 0 8
4 5 10 -3 5 -1 10 4 10 13 0 62 95 54 104 -4 3 -1 6 5 6 14 0 44 55 35 64 -4
3 -1 6 5 6 6 0 18 14 27 30 9 17 12 30 8 30 -4 0 1 6 10 13 9 6 17 19 19 27 2
8 8 19 15 25 7 5 13 16 15 24 2 8 11 23 21 33 10 10 15 24 11 30 -4 7 -3 8 4
4 11 -6 16 6 13 26 0 5 3 8 8 8 11 0 44 50 44 67 0 7 4 10 9 7 8 -5 12 11 8
31 -1 6 2 7 6 3 9 -10 94 113 87 126 -4 6 -3 8 2 4 4 -4 39 34 78 85 38 51 87
113 108 138 21 25 35 49 31 53 -4 4 -2 6 4 4 11 -3 76 66 69 74 -3 3 3 11 12
19 17 13 17 12 4 -6 -8 -11 11 8 43 42 31 34 82 85 114 114 31 29 48 46 37 38
-17 -11 -18 -11 -7 1 7 8 16 15 20 15 8 0 142 107 184 146 15 15 29 25 31 22
2 -2 18 10 36 26 17 16 31 26 31 23 0 -4 7 2 15 12 8 11 15 16 15 10 0 -5 7
-1 14 9 8 10 17 18 20 18 20 -3 26 0 21 9 -4 6 -3 9 2 8 18 -5 53 14 47 25 -4
7 -4 9 1 5 10 -9 85 29 85 43 0 6 5 7 10 4 6 -3 10 -1 10 5 0 6 5 8 10 5 6 -3
10 -1 10 5 0 6 5 8 10 5 6 -3 10 -1 10 5 0 6 5 8 10 5 6 -3 10 -1 10 5 0 6 5
8 10 5 6 -3 10 -1 10 5 0 6 5 8 10 5 6 -3 10 -1 10 5 0 6 4 9 9 5 11 -6 61 15
61 26 0 5 6 6 14 3 7 -3 20 1 27 9 8 7 19 12 25 10 7 -2 18 2 25 10 8 7 20 12
27 9 6 -2 12 1 12 7 0 6 7 8 15 5 8 -4 15 -1 15 5 0 6 7 8 15 5 8 -4 15 -2 15
4 0 6 10 8 22 4 13 -3 19 -1 15 5 -5 7 0 9 13 6 11 -3 20 -1 20 5 0 6 9 8 20
5 11 -3 20 0 20 6 0 5 7 8 15 5 8 -4 15 -1 15 5 0 7 9 9 25 5 14 -3 25 -2 25
4 0 6 9 8 20 5 11 -3 20 0 20 6 0 7 9 9 25 5 15 -4 25 -2 25 5 0 6 11 8 30 5
18 -4 30 -2 30 4 0 7 13 9 35 5 21 -3 35 -2 35 5 0 6 16 8 40 5 25 -4 40 -2
40 5 0 7 23 9 70 5 45 -4 70 -2 70 4 0 7 41 10 115 9 l115 -1 0 -62 c0 -34 5
-65 10 -68 6 -4 8 -58 3 -151 -4 -104 -3 -144 5 -144 8 0 10 -31 5 -110 -4
-80 -3 -110 6 -110 8 0 9 -23 5 -84 -5 -54 -3 -85 4 -90 7 -4 8 -33 5 -81 -4
-48 -2 -75 4 -75 7 0 9 -24 5 -65 -3 -44 -1 -65 6 -65 8 0 10 -19 5 -60 -4
-40 -2 -60 5 -60 7 0 9 -19 5 -55 -4 -37 -2 -55 5 -55 7 0 9 -17 5 -50 -4 -33
-2 -50 5 -50 7 0 9 -17 5 -50 -4 -32 -2 -50 5 -50 6 0 8 -15 5 -39 -3 -21 -1
-41 5 -45 6 -3 8 -24 5 -46 -4 -24 -2 -40 5 -40 6 0 8 -16 5 -40 -4 -25 -2
-40 5 -40 7 0 9 -13 5 -35 -4 -23 -2 -35 6 -35 8 0 9 -13 5 -40 -4 -26 -3 -40
4 -40 7 0 9 -13 5 -35 -3 -20 -1 -35 4 -35 5 0 8 -14 5 -30 -3 -18 0 -30 7
-30 7 0 9 -9 5 -24 -3 -14 -2 -31 2 -38 5 -7 7 -25 5 -40 -1 -16 2 -28 7 -28
4 0 7 -14 4 -30 -2 -16 0 -30 5 -30 6 0 8 -11 5 -25 -2 -14 0 -25 7 -25 6 0 8
-11 5 -30 -4 -17 -2 -30 3 -30 6 0 8 -11 5 -25 -2 -15 0 -25 7 -25 7 0 9 -9 5
-25 -4 -16 -2 -25 5 -25 7 0 9 -9 5 -25 -4 -16 -2 -25 5 -25 7 0 9 -9 5 -25
-4 -16 -2 -25 5 -25 7 0 9 -9 5 -25 -3 -14 -2 -25 4 -25 5 0 7 -11 4 -25 -2
-14 0 -25 6 -25 6 0 8 -9 5 -20 -3 -11 -1 -20 4 -20 6 0 8 -11 5 -25 -2 -14 0
-25 6 -25 6 0 8 -9 5 -20 -3 -11 -1 -20 5 -20 6 0 8 -9 5 -20 -3 -11 -1 -20 5
-20 6 0 8 -9 5 -20 -3 -11 -1 -20 5 -20 6 0 8 -9 5 -20 -3 -11 -1 -20 5 -20 6
0 8 -9 5 -20 -3 -11 -1 -20 5 -20 6 0 8 -9 5 -20 -3 -11 -1 -20 5 -20 6 0 8
-9 5 -20 -3 -11 0 -20 6 -20 5 0 8 -7 5 -15 -4 -8 -2 -15 4 -15 6 0 8 -9 5
-20 -3 -11 0 -20 6 -20 5 0 8 -7 5 -15 -4 -8 -2 -15 4 -15 6 0 8 -9 5 -20 -3
-11 0 -20 6 -20 5 0 8 -7 5 -15 -4 -8 -2 -15 2 -15 5 0 10 -14 10 -32 1 -18 6
-34 12 -36 6 -2 8 -10 5 -18 -3 -8 0 -14 6 -14 6 0 8 -7 5 -15 -4 -8 -1 -15 5
-15 6 0 8 -7 5 -15 -4 -8 -1 -15 5 -15 6 0 8 -7 5 -15 -4 -8 -1 -15 5 -15 6 0
8 -7 5 -15 -4 -8 -1 -15 5 -15 6 0 8 -7 5 -15 -4 -8 -1 -15 5 -15 6 0 8 -7 5
-15 -4 -8 -1 -15 5 -15 6 0 8 -7 5 -15 -4 -8 -1 -15 5 -15 6 0 8 -6 5 -14 -3
-7 1 -20 9 -27 7 -8 12 -20 9 -27 -2 -6 1 -12 7 -12 6 0 8 -6 5 -14 -3 -7 1
-20 9 -27 7 -8 12 -20 9 -27 -2 -6 1 -12 7 -12 6 0 7 -7 4 -17 -4 -11 -3 -14
5 -9 8 5 10 2 6 -8 -3 -9 -1 -16 5 -16 6 0 8 -7 4 -17 -4 -11 -3 -14 5 -9 8 4
10 2 6 -7 -3 -8 2 -21 10 -30 8 -8 13 -17 10 -20 -7 -6 17 -57 27 -57 5 0 5
-7 2 -17 -5 -12 -3 -14 7 -8 8 5 11 4 6 -3 -7 -12 23 -82 36 -82 5 0 6 -5 3
-10 -3 -6 -1 -10 5 -10 6 0 8 -4 5 -10 -3 -5 -1 -10 5 -10 6 0 8 -4 5 -10 -3
-5 -2 -10 4 -10 6 0 8 -7 5 -15 -4 -8 1 -17 10 -21 9 -3 13 -10 10 -15 -3 -5
0 -9 6 -9 6 0 8 -4 5 -10 -3 -5 -1 -10 5 -10 6 0 8 -4 5 -10 -3 -5 -1 -10 6
-10 7 0 10 -3 6 -6 -8 -9 41 -104 53 -104 6 0 9 -3 8 -7 -4 -16 14 -53 23 -47
5 3 8 2 7 -3 -4 -17 14 -53 24 -47 7 4 8 2 4 -4 -4 -6 1 -20 11 -30 10 -10 19
-24 21 -31 9 -42 328 -461 350 -461 2 0 -2 8 -9 18 -13 15 -12 16 3 3 10 -7
16 -17 13 -21 -5 -8 184 -194 251 -247 23 -18 45 -29 49 -25 5 4 5 2 1 -5 -7
-13 31 -40 49 -34 5 1 7 -1 3 -5 -10 -10 52 -55 65 -47 6 3 7 1 4 -4 -6 -10 5
-18 31 -24 4 -1 12 -9 19 -18 7 -9 13 -12 13 -7 0 6 7 1 15 -10 8 -10 15 -16
15 -11 0 4 9 -2 20 -13 12 -12 26 -18 32 -14 6 4 8 3 4 -4 -6 -10 30 -28 47
-24 4 1 7 -2 7 -8 0 -12 55 -41 64 -33 3 4 6 1 6 -6 0 -7 5 -9 10 -6 6 3 10 1
10 -5 0 -6 5 -8 10 -5 6 3 10 1 10 -5 0 -6 5 -8 10 -5 6 3 10 1 10 -5 0 -6 4
-8 10 -5 5 3 10 1 10 -5 0 -6 5 -8 10 -5 6 3 10 1 10 -5 0 -6 5 -8 10 -5 6 3
10 2 10 -3 0 -13 50 -33 62 -26 7 5 8 2 3 -6 -5 -8 -3 -11 6 -8 8 3 20 -2 28
-9 7 -8 18 -12 25 -10 6 2 17 -3 25 -10 7 -8 20 -12 27 -9 8 3 14 1 14 -5 0
-6 6 -9 12 -7 7 3 19 -2 27 -9 7 -8 20 -12 27 -9 8 3 14 1 14 -5 0 -6 7 -9 15
-5 8 3 15 1 15 -5 0 -6 7 -9 15 -5 8 3 15 0 15 -5 0 -6 9 -9 20 -6 11 3 20 1
20 -5 0 -6 7 -8 15 -4 8 3 15 0 15 -5 0 -6 9 -9 20 -6 11 3 20 1 20 -5 0 -6 7
-8 15 -4 8 3 15 0 15 -5 0 -6 9 -9 20 -6 11 3 20 1 20 -5 0 -6 11 -7 25 -4 16
4 25 2 25 -5 0 -6 9 -9 20 -6 11 3 20 1 20 -5 0 -6 11 -8 25 -6 14 3 25 1 25
-5 0 -5 13 -7 30 -3 19 3 30 1 30 -6 0 -6 11 -8 30 -5 19 4 30 2 30 -5 0 -7
13 -9 35 -5 22 4 35 2 35 -5 0 -7 15 -9 40 -5 23 3 43 1 46 -5 4 -6 28 -8 60
-4 38 4 54 3 54 -5 0 -9 28 -10 105 -6 58 4 105 3 105 -1 0 -5 79 -8 175 -8
96 0 175 3 175 8 0 5 18 5 40 2 26 -4 40 -3 40 4 0 7 13 9 35 5 20 -3 35 -1
35 4 0 6 11 8 25 5 14 -2 25 0 25 5 0 6 11 8 25 5 14 -2 25 0 25 6 0 6 9 8 20
5 11 -3 20 0 20 6 0 5 7 8 15 5 8 -4 15 -2 15 4 0 6 9 8 20 5 11 -3 20 0 20 6
0 5 7 8 15 5 8 -4 15 -1 15 5 0 6 7 8 15 5 8 -4 15 -1 15 5 0 6 7 8 15 5 8 -4
15 -1 15 5 0 6 6 8 14 5 7 -3 20 1 27 9 8 7 19 12 25 10 7 -2 18 3 27 11 8 8
17 13 20 10 7 -7 77 28 77 38 0 5 5 6 10 3 6 -3 10 -1 10 4 0 6 3 10 8 9 16
-6 91 35 85 46 -3 6 -3 8 2 4 11 -10 86 33 78 45 -3 6 -2 7 4 4 13 -8 65 27
56 38 -5 4 -3 5 4 1 15 -8 148 97 254 203 106 106 211 239 203 254 -4 7 -3 9
1 4 11 -9 66 73 58 86 -3 6 -1 7 5 3 11 -6 16 6 13 27 0 4 3 7 9 7 12 0 51 75
43 84 -4 3 -1 6 6 6 7 0 9 5 6 10 -3 6 -1 10 5 10 6 0 8 5 5 10 -3 6 -1 10 5
10 6 0 8 4 5 10 -3 5 -1 10 5 10 6 0 8 4 5 10 -3 5 -2 10 3 10 10 0 35 50 28
57 -3 3 2 12 10 20 8 9 13 22 10 29 -3 8 -1 14 5 14 6 0 9 6 7 12 -3 7 2 19 9
27 8 8 12 22 10 33 -3 11 -1 16 6 11 6 -4 8 2 5 15 -4 12 -2 22 4 22 6 0 8 7
4 15 -3 8 0 15 5 15 6 0 9 9 6 20 -3 11 -1 20 5 20 6 0 8 9 5 20 -3 11 -1 20
5 20 6 0 8 9 5 20 -3 11 -1 20 5 20 6 0 8 11 6 25 -3 14 -1 25 4 25 5 0 9 12
7 28 -1 15 2 35 6 45 4 9 4 28 1 42 -4 14 -3 25 1 25 5 0 8 88 8 195 0 107 -3
195 -8 195 -4 0 -4 18 -1 40 4 26 3 40 -4 40 -7 0 -9 11 -5 30 3 19 1 30 -6
30 -7 0 -9 9 -5 25 4 16 2 25 -5 25 -7 0 -9 9 -5 25 3 14 2 25 -4 25 -6 0 -8
9 -5 20 3 11 1 20 -5 20 -6 0 -8 9 -5 20 3 11 0 20 -6 20 -5 0 -8 7 -5 15 4 8
1 15 -5 15 -6 0 -8 7 -5 15 4 8 1 15 -5 15 -6 0 -8 7 -5 15 4 8 1 15 -5 15 -6
0 -8 7 -5 15 4 8 1 15 -5 15 -6 0 -8 6 -5 14 3 7 -1 20 -9 27 -7 8 -12 19 -10
25 2 7 -3 18 -11 27 -8 8 -13 17 -10 20 8 8 -85 187 -97 187 -5 0 -8 4 -4 10
3 5 -3 18 -15 30 -11 11 -17 20 -14 20 9 0 -19 42 -94 142 -36 48 -70 84 -75
81 -6 -3 -7 -1 -4 5 15 23 -311 321 -335 306 -6 -4 -8 -2 -5 3 6 9 -10 22 -28
23 -3 0 -14 9 -25 20 -12 12 -26 18 -32 14 -7 -4 -8 -3 -4 4 4 7 2 12 -3 12
-6 0 -13 0 -16 0 -3 0 -14 9 -25 20 -12 12 -25 18 -30 15 -6 -4 -10 -1 -10 5
0 6 -4 8 -10 5 -5 -3 -10 -1 -10 4 0 14 -98 63 -110 56 -6 -4 -10 -1 -10 6 0
7 -3 10 -6 6 -4 -3 -13 1 -21 9 -9 8 -20 13 -27 11 -6 -2 -17 3 -25 10 -7 8
-20 12 -27 9 -8 -3 -14 -1 -14 5 0 6 -7 9 -15 5 -8 -3 -15 -1 -15 5 0 6 -7 9
-15 5 -8 -3 -15 -1 -15 5 0 6 -7 9 -15 5 -8 -3 -15 -1 -15 5 0 6 -7 9 -15 5
-8 -3 -15 0 -15 5 0 6 -9 9 -20 6 -11 -3 -20 -1 -20 5 0 6 -7 8 -15 4 -8 -3
-15 -1 -15 5 0 7 -10 9 -25 5 -16 -4 -25 -2 -25 5 0 6 -9 9 -20 6 -11 -3 -20
0 -20 5 0 6 -12 8 -30 5 -19 -4 -30 -2 -30 5 0 6 -11 8 -30 5 -17 -4 -32 -2
-36 5 -4 6 -23 8 -50 4 -24 -3 -46 -1 -49 4 -8 13 -285 13 -285 0 0 -5 -21 -7
-50 -3 -34 4 -50 2 -50 -5 0 -7 -11 -9 -30 -5 -19 3 -30 1 -30 -5 0 -7 -11 -9
-30 -5 -17 3 -30 1 -30 -4 0 -6 -11 -8 -25 -5 -14 2 -25 0 -25 -6 0 -6 -9 -8
-20 -5 -11 3 -20 1 -20 -5 0 -6 -9 -8 -20 -5 -11 3 -20 0 -20 -6 0 -5 -7 -8
-15 -5 -8 4 -15 2 -15 -2 0 -5 -14 -10 -32 -10 -18 -1 -34 -6 -36 -12 -2 -6
-9 -9 -16 -6 -8 3 -20 -1 -27 -9 -8 -7 -20 -12 -27 -9 -6 2 -12 -1 -12 -7 0
-6 -6 -8 -14 -5 -7 3 -20 -2 -29 -10 -8 -8 -17 -12 -21 -9 -3 4 -6 1 -6 -6 0
-7 -4 -10 -10 -6 -12 7 -170 -72 -170 -86 0 -5 -4 -8 -9 -5 -29 18 -442 -307
-426 -335 3 -4 -3 -13 -13 -20 -16 -13 -16 -12 -3 6 14 18 13 19 -1 5 -40 -37
-107 -124 -102 -132 3 -5 1 -7 -5 -6 -13 4 -122 -152 -115 -163 3 -5 1 -9 -5
-9 -13 0 -42 -55 -34 -64 4 -3 1 -6 -5 -6 -16 0 -74 -118 -66 -132 5 -7 3 -8
-6 -3 -8 5 -11 3 -8 -6 3 -8 -2 -20 -9 -28 -8 -7 -12 -18 -10 -25 2 -6 -3 -17
-10 -25 -8 -7 -12 -20 -9 -27 3 -8 1 -14 -5 -14 -6 0 -9 -7 -5 -15 3 -8 1 -15
-5 -15 -6 0 -9 -7 -5 -15 3 -8 1 -15 -5 -15 -6 0 -9 -7 -5 -15 3 -8 1 -15 -5
-15 -6 0 -9 -7 -5 -15 3 -8 0 -15 -5 -15 -6 0 -9 -9 -6 -20 3 -11 1 -20 -5
-20 -5 0 -6 -9 -3 -20 4 -12 2 -20 -5 -20 -7 0 -10 -8 -7 -20 3 -11 1 -20 -5
-20 -6 0 -7 -11 -4 -25 4 -16 2 -25 -5 -25 -7 0 -9 -10 -7 -25 3 -14 1 -25 -5
-25 -5 0 -7 -15 -4 -35 3 -20 1 -37 -5 -41 -6 -4 -8 -25 -4 -55 4 -29 2 -50
-4 -54 -5 -3 -10 -17 -10 -30 0 -13 -5 -27 -12 -31 -7 -4 -8 -3 -4 4 4 7 2 12
-3 12 -6 0 -10 3 -9 7 5 15 -24 73 -33 67 -5 -3 -6 2 -3 10 4 9 -1 18 -10 22
-9 3 -13 10 -10 15 3 5 0 9 -6 9 -6 0 -8 4 -5 10 3 5 1 10 -5 10 -6 0 -9 4 -6
9 8 13 -4 42 -15 35 -5 -3 -6 3 -2 12 5 13 3 15 -7 9 -8 -5 -11 -4 -6 3 7 12
-13 62 -26 62 -5 0 -6 5 -3 10 3 6 2 10 -4 10 -6 0 -8 6 -5 14 3 7 -2 20 -10
29 -8 8 -12 17 -9 21 4 3 1 6 -5 6 -6 0 -9 6 -6 14 3 7 -1 20 -9 27 -7 8 -12
19 -10 25 2 7 -2 18 -10 25 -7 8 -12 20 -9 27 2 6 -1 12 -7 12 -6 0 -8 6 -5
14 3 7 -1 20 -9 27 -7 8 -12 20 -9 27 2 6 -1 12 -7 12 -6 0 -8 7 -5 15 4 8 1
15 -5 15 -6 0 -8 7 -5 15 4 8 1 15 -6 15 -6 0 -9 4 -6 8 7 11 -15 82 -25 82
-5 0 -6 7 -3 15 4 8 1 15 -5 15 -6 0 -8 7 -5 15 4 8 1 15 -5 15 -6 0 -8 7 -5
15 4 8 2 15 -4 15 -6 0 -8 9 -5 20 3 11 0 20 -6 20 -5 0 -8 7 -5 15 4 8 2 15
-2 15 -5 0 -10 14 -10 32 -1 18 -6 34 -12 36 -5 1 -8 12 -5 22 3 11 0 20 -6
20 -5 0 -8 7 -5 15 4 8 2 15 -4 15 -6 0 -8 9 -5 20 3 11 1 20 -5 20 -6 0 -8 9
-5 20 3 11 1 20 -5 20 -6 0 -8 9 -5 20 3 11 1 20 -5 20 -6 0 -8 9 -5 20 3 11
0 20 -6 20 -7 0 -9 9 -5 25 3 14 2 25 -4 25 -6 0 -8 9 -5 20 3 11 1 20 -5 20
-6 0 -8 8 -5 19 3 10 0 22 -5 25 -6 3 -8 15 -5 26 3 11 1 20 -4 20 -6 0 -8 11
-5 25 2 14 0 25 -5 25 -6 0 -8 11 -5 25 2 14 0 25 -5 25 -6 0 -8 11 -5 25 2
14 0 25 -5 25 -6 0 -8 11 -5 25 2 15 0 25 -7 25 -7 0 -9 9 -5 24 3 13 1 26 -4
30 -5 3 -7 17 -4 31 2 14 0 25 -7 25 -6 0 -8 11 -4 30 3 19 1 30 -5 30 -7 0
-9 11 -5 30 3 19 1 30 -5 30 -7 0 -9 11 -5 30 3 18 1 30 -5 30 -7 0 -9 13 -5
35 3 22 2 35 -5 35 -7 0 -9 13 -5 35 3 22 2 35 -5 35 -7 0 -9 13 -5 35 3 21 2
35 -5 35 -6 0 -8 16 -5 40 4 24 2 40 -5 40 -6 0 -8 16 -5 40 4 24 2 40 -5 40
-6 0 -8 15 -5 39 3 21 1 41 -5 45 -6 3 -8 23 -5 45 3 21 1 41 -5 45 -5 3 -7
26 -4 51 3 28 1 45 -6 45 -7 0 -9 19 -5 55 4 36 2 55 -5 55 -7 0 -9 19 -5 55
4 37 2 55 -5 55 -8 0 -9 21 -5 65 4 44 2 65 -5 65 -7 0 -9 22 -5 69 4 42 2 71
-5 75 -6 4 -8 36 -5 86 4 54 2 80 -5 80 -8 0 -9 32 -5 105 4 73 3 105 -5 105
-7 0 -9 38 -5 124 3 68 2 132 -2 142 -4 11 -7 211 -6 445 2 320 0 428 -9 434
-9 5 -10 65 -4 240 5 167 4 234 -4 239 -8 5 -10 45 -5 131 4 90 3 125 -5 125
-8 0 -10 27 -5 94 4 63 2 95 -5 100 -8 5 -9 33 -5 86 4 55 3 80 -5 80 -7 0 -9
23 -5 70 4 48 2 70 -5 70 -8 0 -9 20 -5 65 4 43 2 65 -5 65 -7 0 -9 19 -5 55
4 36 2 55 -5 55 -7 0 -9 19 -5 55 4 37 2 55 -5 55 -7 0 -9 17 -5 50 4 34 2 50
-5 50 -8 0 -10 15 -5 45 3 28 2 45 -4 45 -7 0 -9 18 -5 45 3 28 1 45 -6 45 -6
0 -8 16 -5 40 4 24 2 40 -5 40 -6 0 -8 16 -5 40 4 25 2 40 -5 40 -7 0 -9 13
-5 35 3 22 2 35 -5 35 -7 0 -9 13 -5 35 3 22 2 35 -5 35 -7 0 -9 13 -5 35 3
22 2 35 -5 35 -7 0 -9 13 -5 35 4 22 2 35 -5 35 -7 0 -9 11 -5 30 3 19 1 30
-5 30 -7 0 -9 11 -5 30 3 19 1 30 -5 30 -7 0 -9 11 -5 30 3 19 1 30 -5 30 -7
0 -9 11 -5 30 3 17 1 30 -4 30 -6 0 -8 11 -5 25 2 14 0 25 -7 25 -6 0 -8 11
-4 30 3 17 1 30 -4 30 -6 0 -8 11 -5 25 2 14 0 25 -5 25 -6 0 -8 11 -5 25 2
14 0 25 -5 25 -6 0 -8 11 -5 25 2 14 0 25 -5 25 -6 0 -8 11 -5 25 2 14 0 25
-6 25 -6 0 -8 9 -5 20 3 11 1 20 -4 20 -6 0 -8 11 -5 25 2 14 0 25 -6 25 -6 0
-8 9 -5 20 3 11 1 20 -4 20 -6 0 -8 11 -5 25 2 14 0 25 -6 25 -6 0 -8 9 -5 20
3 11 1 20 -5 20 -6 0 -8 9 -5 20 3 11 1 20 -5 20 -6 0 -8 9 -5 20 3 11 1 20
-5 20 -6 0 -8 9 -5 20 3 11 1 20 -5 20 -6 0 -8 9 -5 20 3 11 1 20 -5 20 -6 0
-8 9 -5 20 3 11 0 20 -6 20 -5 0 -8 7 -5 15 4 8 2 15 -4 15 -6 0 -8 9 -5 20 3
11 1 20 -5 20 -6 0 -8 9 -5 20 3 11 0 20 -6 20 -5 0 -8 7 -5 15 4 8 2 15 -4
15 -6 0 -8 9 -5 20 3 11 0 20 -6 20 -5 0 -8 7 -5 15 4 8 1 15 -5 15 -6 0 -8 7
-5 15 4 8 2 15 -2 15 -5 0 -10 14 -10 32 -1 18 -6 34 -12 36 -6 2 -8 10 -5 18
3 8 0 14 -6 14 -6 0 -8 7 -5 15 4 8 1 15 -5 15 -6 0 -8 7 -5 15 4 8 1 15 -5
15 -6 0 -8 7 -5 15 4 8 1 15 -5 15 -6 0 -8 7 -5 15 4 8 1 15 -5 15 -6 0 -8 7
-5 15 4 8 1 15 -5 15 -6 0 -8 7 -5 15 4 8 1 15 -6 15 -6 0 -9 4 -6 9 7 11 -13
71 -25 71 -4 0 -6 7 -3 15 4 8 1 15 -5 15 -6 0 -8 6 -5 14 3 7 -1 20 -9 27 -7
8 -12 19 -10 25 2 7 -2 18 -10 25 -7 8 -12 19 -10 25 2 7 -2 18 -10 25 -7 8
-12 19 -10 25 2 7 -3 18 -11 27 -8 8 -13 17 -10 20 7 6 -17 57 -27 57 -5 0 -5
7 -2 17 5 12 3 14 -7 8 -8 -5 -11 -4 -6 3 7 12 -13 62 -26 62 -5 0 -6 5 -3 10
3 6 2 10 -4 10 -6 0 -7 7 -4 17 5 12 3 14 -7 8 -8 -5 -11 -4 -6 3 9 14 -75
183 -87 175 -6 -4 -7 -1 -2 7 5 8 1 18 -10 27 -11 7 -16 13 -12 13 4 0 -2 18
-13 40 -11 22 -25 40 -30 40 -6 0 -9 3 -8 8 4 15 -14 52 -23 46 -5 -3 -8 -2
-7 3 4 17 -14 53 -24 47 -7 -4 -8 -2 -4 4 4 6 -1 20 -11 30 -10 10 -19 25 -21
32 -8 37 -252 361 -265 353 -6 -3 -8 -2 -5 3 4 5 -10 27 -29 49 -19 22 -32 34
-27 26 5 -9 3 -12 -5 -7 -6 4 -9 11 -7 15 6 8 -211 228 -220 223 -3 -2 -9 0
-12 4 -4 4 0 4 8 0 22 -11 -32 36 -139 119 -52 41 -98 72 -102 69 -4 -2 -10 3
-13 12 -3 8 -10 13 -15 10 -5 -3 -12 1 -15 10 -4 9 -9 14 -12 11 -3 -3 -14 3
-25 14 -11 11 -25 17 -31 13 -7 -4 -8 -3 -4 4 6 11 -6 16 -26 13 -5 0 -8 3 -8
9 0 5 -13 16 -30 25 -16 9 -30 12 -30 8 0 -4 -6 1 -13 12 -9 11 -19 15 -27 10
-8 -5 -11 -4 -7 2 8 12 -101 66 -115 57 -7 -5 -8 -2 -3 6 6 10 4 12 -8 7 -10
-4 -17 -1 -17 5 0 6 -3 9 -6 5 -4 -3 -13 1 -21 9 -9 8 -20 13 -27 11 -6 -2
-17 3 -25 10 -7 8 -20 12 -27 9 -8 -3 -14 -1 -14 5 0 6 -7 8 -16 5 -10 -4 -13
-2 -8 6 5 8 2 9 -9 5 -10 -4 -17 -2 -17 4 0 6 -7 9 -15 5 -8 -3 -15 -1 -15 5
0 6 -7 9 -15 5 -8 -3 -15 -1 -15 5 0 6 -7 9 -15 5 -8 -3 -15 -1 -15 5 0 6 -7
9 -15 5 -8 -3 -15 0 -15 5 0 6 -9 9 -20 6 -11 -3 -20 -1 -20 5 0 6 -9 8 -20 5
-11 -3 -20 -1 -20 5 0 6 -7 8 -15 4 -8 -3 -15 0 -15 5 0 6 -9 9 -20 6 -11 -3
-20 -1 -20 5 0 6 -7 8 -15 4 -8 -3 -15 -1 -15 5 0 6 -7 9 -15 5 -8 -3 -15 0
-15 5 0 6 -9 9 -20 6 -11 -3 -20 -1 -20 5 0 6 -9 8 -20 5 -11 -3 -20 -1 -20 5
0 6 -9 8 -20 5 -11 -3 -20 -1 -20 5 0 6 -11 8 -25 6 -14 -3 -25 -1 -25 5 0 5
-13 7 -30 4 -19 -4 -30 -2 -30 5 0 7 -14 8 -40 4 -27 -4 -40 -3 -40 5 0 8 -18
10 -59 5 -38 -4 -62 -3 -66 4 -8 13 -152 13 -160 0z m215 -944 c0 -5 20 -6 45
-4 26 3 45 1 45 -4 0 -6 14 -8 30 -6 17 3 30 0 30 -5 0 -5 13 -7 30 -3 19 3
30 1 30 -5 0 -6 7 -8 16 -5 10 4 13 2 8 -6 -5 -8 -2 -9 9 -5 10 3 17 2 17 -4
0 -6 5 -7 10 -4 6 3 10 2 10 -4 0 -10 29 -23 42 -18 4 1 13 -6 20 -15 7 -9 19
-18 27 -20 7 -2 25 -13 39 -25 13 -13 29 -20 35 -16 5 3 7 1 4 -4 -6 -10 15
-25 38 -27 6 -1 10 -5 10 -11 1 -13 98 -110 107 -107 5 1 7 -1 6 -6 -5 -13 28
-52 37 -44 5 4 5 2 2 -4 -4 -6 3 -23 16 -36 12 -14 23 -32 25 -39 2 -8 10 -19
17 -25 8 -6 12 -14 8 -17 -3 -4 -1 -7 6 -7 7 0 9 -4 6 -10 -3 -5 -1 -10 5 -10
6 0 8 -4 5 -10 -3 -5 -2 -10 4 -10 6 0 7 -7 4 -17 -4 -11 -3 -14 5 -9 8 4 10
2 6 -7 -3 -8 1 -21 9 -28 7 -8 12 -20 9 -27 -2 -6 1 -12 7 -12 6 0 8 -7 5 -15
-4 -8 -2 -15 4 -15 6 0 8 -9 5 -20 -3 -11 -1 -20 5 -20 6 0 8 -9 5 -20 -3 -11
0 -20 6 -20 6 0 8 -11 5 -30 -4 -17 -2 -30 4 -30 5 0 8 -18 5 -44 -3 -26 -1
-46 6 -50 6 -4 11 -27 11 -51 0 -24 -5 -47 -11 -51 -7 -4 -9 -24 -6 -50 3 -26
0 -44 -5 -44 -6 0 -8 -13 -4 -30 3 -19 1 -30 -5 -30 -6 0 -9 -9 -6 -20 3 -11
1 -20 -5 -20 -6 0 -8 -9 -5 -20 3 -11 1 -20 -5 -20 -6 0 -8 -7 -4 -15 3 -8 1
-15 -5 -15 -6 0 -9 -6 -7 -12 3 -7 -2 -19 -9 -27 -8 -7 -12 -20 -9 -28 4 -9 2
-11 -6 -7 -8 5 -9 2 -5 -9 3 -10 2 -17 -4 -17 -6 0 -7 -4 -4 -10 3 -5 1 -10
-5 -10 -6 0 -8 -4 -5 -10 3 -5 1 -10 -6 -10 -7 0 -9 -3 -6 -7 4 -3 0 -11 -8
-17 -7 -6 -15 -17 -17 -25 -2 -7 -13 -25 -25 -39 -13 -13 -20 -30 -16 -36 3
-6 3 -8 -2 -4 -9 8 -42 -31 -37 -45 1 -4 -1 -6 -5 -5 -10 3 -107 -94 -108
-107 0 -5 -4 -10 -10 -11 -23 -2 -44 -17 -38 -27 3 -5 1 -7 -4 -4 -6 4 -22 -3
-35 -16 -14 -12 -32 -23 -39 -25 -8 -2 -19 -10 -26 -18 -6 -9 -15 -15 -20 -15
-17 1 -43 -11 -43 -20 0 -6 -4 -7 -10 -4 -5 3 -10 2 -10 -4 0 -6 -7 -7 -17 -4
-11 4 -14 3 -9 -5 5 -8 2 -10 -8 -6 -9 3 -16 1 -16 -5 0 -6 -7 -8 -15 -5 -8 4
-15 1 -15 -5 0 -6 -7 -8 -15 -5 -8 4 -15 1 -15 -5 0 -6 -7 -8 -15 -5 -8 4 -15
2 -15 -4 0 -5 -11 -7 -25 -4 -14 2 -25 0 -25 -5 0 -6 -11 -8 -25 -5 -14 2 -25
0 -25 -6 0 -6 -16 -8 -40 -5 -25 4 -40 2 -40 -5 0 -7 -28 -11 -75 -11 -47 0
-75 4 -75 11 0 7 -16 9 -45 6 -27 -3 -45 -1 -45 4 0 6 -11 8 -25 6 -14 -3 -25
-1 -25 5 0 5 -9 7 -20 4 -11 -3 -20 -1 -20 5 0 6 -9 8 -20 5 -13 -3 -18 -1
-13 6 4 6 -2 8 -15 5 -12 -4 -20 -2 -16 3 5 8 0 10 -38 13 -7 1 -15 4 -18 7
-12 15 -128 67 -135 61 -5 -4 -5 -1 -1 6 7 11 -5 17 -27 13 -5 -1 -6 3 -2 9 6
9 -8 14 -28 11 -5 -1 -6 3 -3 8 6 9 -22 26 -37 22 -5 -1 -7 2 -5 6 4 11 -140
151 -148 144 -3 -3 -5 -1 -3 4 4 17 -12 45 -22 39 -5 -3 -9 -2 -8 3 4 15 -24
63 -33 57 -5 -3 -7 -2 -6 3 4 16 -14 53 -23 48 -5 -3 -6 2 -2 11 4 12 3 15 -5
10 -8 -5 -10 -1 -5 10 4 12 3 15 -5 10 -8 -4 -10 -2 -6 7 3 8 -1 21 -9 28 -7
8 -12 20 -9 28 3 8 0 11 -7 7 -7 -5 -9 -1 -5 8 3 9 1 16 -5 16 -6 0 -8 7 -5
15 4 8 2 15 -4 15 -6 0 -8 9 -5 20 3 11 1 20 -5 20 -6 0 -8 9 -5 20 3 11 1 20
-4 20 -6 0 -8 11 -5 25 2 14 0 25 -5 25 -5 0 -7 16 -5 35 2 19 0 35 -4 35 -5
0 -9 43 -9 95 0 52 4 95 9 95 4 0 6 16 4 35 -2 19 0 35 5 35 5 0 7 11 5 25 -3
14 -1 25 5 25 5 0 7 9 4 20 -3 11 -1 20 5 20 6 0 8 9 5 20 -3 11 -1 20 5 20 6
0 8 7 4 15 -3 8 -1 15 5 15 6 0 8 7 5 16 -4 9 -2 13 5 8 7 -4 10 -1 7 7 -3 8
2 20 9 28 8 7 12 20 9 28 -4 9 -2 11 6 7 8 -5 9 -2 5 10 -5 11 -3 15 5 10 8
-5 9 -2 5 10 -4 9 -3 14 2 11 9 -5 27 32 23 48 -1 5 1 6 6 3 9 -6 37 42 33 57
-1 5 3 6 8 3 9 -6 26 22 22 37 -1 5 2 7 6 5 11 -4 151 140 144 148 -3 3 -1 5
4 3 17 -4 45 12 39 22 -3 5 -2 9 3 8 20 -3 34 2 28 11 -4 6 -3 10 2 9 22 -4
34 2 27 14 -4 6 -4 9 1 5 7 -6 123 46 135 61 3 3 11 6 18 7 38 3 43 5 38 13
-4 5 3 7 14 4 11 -3 20 -1 20 5 0 7 17 9 50 5 28 -3 50 -2 50 3 0 5 72 9 160
9 88 0 160 -4 160 -9z m1120 -2320 c0 -2 -8 -10 -17 -17 -16 -13 -17 -12 -4 4
13 16 21 21 21 13z m-3309 -6023 c13 -16 12 -17 -3 -4 -17 13 -22 21 -14 21 2
0 10 -8 17 -17z m6649 -16 c0 -2 -10 -12 -22 -23 l-23 -19 19 23 c18 21 26 27
26 19z m-7771 -432 c7 -4 23 -4 37 -1 15 4 24 2 24 -5 0 -7 9 -9 25 -5 16 4
25 2 25 -5 0 -6 9 -9 20 -6 11 3 20 1 20 -5 0 -6 7 -8 15 -4 8 3 15 1 15 -5 0
-6 7 -9 15 -5 8 3 15 1 15 -5 0 -6 7 -8 16 -5 9 4 13 2 8 -5 -4 -7 -1 -10 7
-7 8 3 20 -2 28 -9 7 -8 20 -12 28 -9 9 4 11 2 7 -6 -5 -8 -2 -9 10 -5 9 4 15
3 12 -2 -6 -9 53 -38 67 -33 5 1 6 -2 2 -8 -6 -9 8 -14 28 -11 5 1 6 -3 2 -9
-6 -10 9 -15 30 -10 5 1 7 -2 3 -6 -8 -8 32 -41 45 -36 4 1 6 -1 5 -5 -3 -10
104 -117 117 -118 6 0 9 -6 8 -12 -1 -6 11 -26 27 -43 16 -17 29 -33 29 -35 1
-3 1 -10 1 -16 0 -5 5 -7 10 -4 6 4 9 3 8 -2 -4 -16 14 -53 23 -48 5 3 6 -1 3
-9 -4 -9 0 -18 9 -22 9 -3 13 -12 10 -21 -4 -11 -2 -14 5 -9 8 4 10 2 6 -7 -3
-8 1 -21 8 -28 7 -8 13 -18 13 -24 1 -25 17 -75 25 -75 4 0 6 -9 3 -20 -3 -11
-1 -20 5 -20 6 0 8 -9 5 -20 -3 -11 0 -20 6 -20 6 0 8 -11 5 -30 -4 -16 -3
-30 2 -30 5 0 9 -58 9 -130 0 -71 -4 -130 -9 -130 -5 0 -6 -13 -2 -30 3 -19 1
-30 -5 -30 -7 0 -9 -10 -5 -25 4 -16 2 -25 -5 -25 -6 0 -9 -7 -5 -15 3 -8 2
-15 -3 -15 -9 0 -26 -48 -23 -62 1 -5 -2 -8 -8 -8 -5 0 -16 -13 -25 -30 -9
-17 -13 -30 -10 -30 3 0 -4 -9 -15 -20 -12 -12 -18 -26 -14 -32 4 -7 3 -8 -4
-4 -7 4 -12 2 -12 -3 0 -20 -3 -26 -19 -38 -9 -7 -13 -13 -9 -13 3 0 -7 -14
-23 -31 -16 -17 -26 -36 -22 -43 3 -6 3 -8 -2 -4 -9 8 -42 -31 -37 -44 1 -5
-1 -7 -6 -6 -4 1 -27 -18 -52 -42 -25 -24 -38 -40 -30 -35 9 5 12 5 7 -1 -5
-5 -13 -10 -18 -10 -5 -1 -14 -2 -20 -3 -5 0 -7 -6 -3 -13 4 -7 3 -8 -4 -4 -6
4 -19 -3 -29 -15 -30 -38 -97 -104 -103 -102 -10 5 -40 -9 -40 -18 0 -6 -4 -7
-10 -4 -5 3 -10 2 -10 -4 0 -6 -6 -8 -14 -5 -7 3 -20 -1 -27 -9 -8 -7 -20 -12
-27 -9 -6 2 -12 -1 -12 -7 0 -6 -7 -8 -15 -5 -8 4 -15 2 -15 -4 0 -6 -9 -8
-20 -5 -11 3 -20 1 -20 -5 0 -6 -9 -8 -20 -5 -11 3 -20 0 -20 -6 0 -6 -11 -8
-30 -5 -16 4 -30 3 -30 -2 0 -10 -256 -9 -282 1 -10 4 -25 5 -33 1 -8 -3 -15
0 -15 5 0 7 -11 9 -25 7 -13 -3 -26 -1 -28 5 -1 5 -17 10 -35 11 -18 0 -32 5
-32 9 0 5 -6 7 -12 5 -7 -3 -19 2 -27 9 -7 8 -20 12 -28 9 -9 -4 -11 -2 -7 6
5 8 2 9 -9 5 -10 -3 -17 -2 -17 4 0 6 -4 7 -10 4 -5 -3 -10 -1 -10 5 0 6 -4 8
-10 5 -5 -3 -10 -1 -10 5 0 6 -4 8 -10 5 -5 -3 -10 -2 -10 4 0 14 -55 42 -65
33 -5 -4 -5 -2 -2 4 6 11 -3 19 -25 23 -4 1 -48 41 -98 89 -50 48 -93 85 -96
82 -3 -3 -5 0 -3 5 4 18 -13 45 -24 38 -5 -3 -7 -1 -4 4 4 6 -4 22 -18 37 -13
14 -22 26 -19 26 2 0 -2 14 -11 30 -9 17 -20 30 -26 30 -6 0 -7 5 -4 10 3 6 2
10 -4 10 -6 0 -7 7 -4 17 4 11 3 14 -5 9 -8 -4 -10 -2 -6 7 3 8 -1 21 -8 28
-7 8 -13 19 -13 24 -1 25 -17 75 -25 75 -4 0 -6 9 -3 20 3 11 1 20 -5 20 -6 0
-8 9 -5 20 3 11 1 20 -5 20 -7 0 -9 14 -5 35 3 19 2 35 -3 35 -5 0 -9 54 -9
120 0 66 4 120 9 120 4 0 6 14 4 30 -3 17 0 30 5 30 5 0 7 11 5 25 -3 14 -1
25 5 25 5 0 7 9 4 20 -3 11 -1 20 5 20 6 0 8 7 4 15 -3 8 -1 15 5 15 6 0 9 7
5 15 -3 8 -1 15 5 15 6 0 9 7 5 15 -3 8 -2 15 3 15 12 0 32 50 25 62 -5 7 -2
8 6 3 10 -6 12 -4 7 9 -4 9 -3 15 2 12 9 -6 38 53 33 67 -1 5 2 6 8 2 10 -6
15 9 10 30 -1 6 2 7 6 3 7 -7 58 58 59 74 0 3 4 10 9 15 5 5 6 2 2 -7 -5 -8 4
-1 18 17 15 18 44 46 64 64 20 17 30 28 22 24 -9 -5 -12 -4 -7 1 5 5 12 9 15
10 20 2 41 17 36 25 -3 5 -2 9 3 8 16 -4 43 13 36 24 -3 6 -1 7 5 3 6 -4 20 2
32 14 11 11 21 19 23 18 7 -5 107 45 107 53 0 5 7 5 17 2 11 -4 14 -3 9 5 -5
8 -2 10 8 6 9 -3 16 -1 16 5 0 6 7 8 15 5 8 -4 15 -1 15 5 0 6 7 8 15 5 8 -4
15 -2 15 4 0 6 9 8 20 5 11 -3 20 0 20 6 0 7 9 9 25 5 15 -4 25 -2 25 4 0 7
14 9 35 5 19 -3 35 -2 35 3 0 11 212 10 229 -1z m9141 1 c0 -4 14 -6 30 -4 17
3 30 0 30 -5 0 -5 11 -7 25 -5 14 3 25 1 25 -5 0 -5 9 -7 20 -4 11 3 20 1 20
-5 0 -6 7 -8 15 -4 8 3 15 1 15 -5 0 -6 7 -9 15 -5 8 3 15 1 15 -5 0 -6 6 -9
12 -7 7 3 19 -2 27 -9 7 -8 20 -12 28 -9 9 4 11 2 7 -6 -5 -8 -2 -9 9 -5 10 3
17 2 17 -4 0 -6 5 -7 10 -4 6 3 10 1 10 -6 0 -7 3 -9 7 -6 3 4 11 0 17 -8 6
-7 17 -15 25 -17 7 -2 25 -13 39 -25 13 -13 29 -20 35 -16 5 3 7 1 4 -4 -7
-11 20 -28 38 -24 5 2 7 0 4 -3 -7 -7 133 -151 143 -148 5 1 7 -1 6 -6 -3 -14
14 -42 23 -36 5 3 9 2 8 -3 -4 -21 2 -34 13 -27 7 4 8 3 4 -4 -4 -6 2 -20 14
-32 11 -11 20 -23 20 -27 -1 -15 33 -83 41 -83 5 0 5 -7 2 -17 -4 -11 -3 -14
5 -9 8 5 10 2 6 -8 -3 -9 -1 -16 5 -16 6 0 8 -7 5 -15 -4 -8 -1 -15 5 -15 6 0
8 -7 5 -15 -4 -8 -2 -15 4 -15 6 0 8 -9 5 -20 -3 -11 -1 -20 5 -20 6 0 8 -9 5
-20 -3 -11 -1 -20 4 -20 6 0 8 -11 5 -25 -2 -14 0 -25 6 -25 7 0 9 -17 5 -49
-3 -31 -1 -51 6 -55 14 -9 14 -83 0 -92 -7 -4 -9 -25 -7 -55 3 -28 1 -49 -5
-49 -5 0 -7 -11 -5 -25 3 -14 1 -25 -5 -25 -5 0 -7 -11 -5 -25 3 -14 1 -25 -4
-25 -6 0 -8 -7 -4 -15 3 -8 2 -15 -3 -15 -10 0 -32 -71 -25 -82 3 -4 1 -8 -4
-8 -13 0 -33 -50 -26 -62 4 -6 2 -8 -3 -5 -10 6 -40 -50 -35 -65 1 -5 -2 -8
-7 -8 -12 0 -57 -72 -53 -85 2 -5 0 -7 -3 -3 -4 4 -17 -5 -29 -20 -11 -14 -19
-28 -16 -29 3 -1 -13 -20 -34 -42 -22 -22 -42 -39 -45 -37 -3 2 -20 -7 -36
-21 -17 -14 -24 -22 -16 -18 9 6 12 4 7 -4 -4 -6 -12 -9 -17 -6 -5 4 -20 -5
-34 -19 -14 -14 -28 -26 -30 -26 -3 0 -10 0 -16 0 -5 0 -7 -5 -4 -10 4 -6 3
-9 -2 -8 -13 4 -113 -44 -113 -53 0 -5 -7 -5 -17 -2 -11 4 -14 3 -9 -5 5 -8 2
-10 -8 -6 -9 3 -16 1 -16 -5 0 -6 -7 -8 -15 -5 -8 4 -15 1 -15 -5 0 -6 -7 -8
-15 -5 -8 4 -15 2 -15 -4 0 -6 -9 -8 -20 -5 -11 3 -20 1 -20 -3 0 -5 -20 -8
-45 -6 -25 2 -45 0 -45 -5 0 -6 -43 -8 -105 -5 -74 3 -105 1 -105 -7 0 -6 -16
-11 -35 -11 -19 0 -35 5 -35 11 0 7 -12 10 -30 7 -16 -3 -30 0 -30 5 0 5 -11
6 -25 3 -16 -4 -25 -2 -25 5 0 6 -7 9 -15 5 -8 -3 -15 -1 -15 4 0 7 -49 24
-75 25 -5 0 -16 6 -24 13 -7 7 -20 11 -28 8 -9 -4 -11 -2 -7 6 5 7 2 9 -9 5
-9 -3 -18 1 -21 10 -4 9 -13 13 -22 9 -8 -3 -12 -2 -9 3 5 9 -32 27 -48 23 -5
-1 -6 2 -2 8 6 9 -8 14 -28 11 -5 -1 -6 3 -2 9 6 10 -9 15 -30 10 -5 -1 -7 2
-3 6 7 7 -29 39 -44 39 -3 0 -10 4 -15 9 -5 5 -2 6 6 1 8 -4 -10 16 -40 45
-30 30 -58 54 -64 54 -5 1 -10 6 -11 11 -2 22 -17 45 -25 39 -5 -3 -9 -2 -8 3
4 16 -13 43 -24 36 -6 -3 -7 -1 -3 5 4 6 -2 20 -14 32 -11 11 -19 21 -17 23 5
6 -37 87 -45 87 -5 0 -6 5 -3 10 3 6 1 10 -5 10 -6 0 -9 4 -6 8 7 12 -15 82
-25 77 -4 -3 -5 4 -2 15 3 11 1 20 -5 20 -6 0 -8 9 -5 20 3 11 1 20 -4 20 -6
0 -8 11 -5 25 2 14 0 25 -6 25 -7 0 -9 14 -5 35 3 19 2 35 -3 35 -5 0 -9 45
-9 100 0 55 4 100 9 100 5 0 6 16 3 35 -4 21 -2 35 5 35 6 0 8 11 6 25 -3 14
-1 25 5 25 5 0 7 9 4 20 -3 11 -1 20 5 20 6 0 8 7 4 15 -3 8 -1 15 5 15 6 0 9
7 5 15 -3 8 -1 15 5 15 6 0 9 6 7 12 -3 7 2 19 9 27 8 7 12 20 9 27 -3 8 -1
14 5 14 6 0 7 5 4 10 -3 6 -1 10 5 10 6 0 8 5 5 10 -3 6 -1 10 5 10 6 0 8 5 5
10 -3 6 -2 10 4 10 14 0 42 55 33 65 -4 5 -1 5 6 1 11 -7 17 5 13 27 -1 5 3 6
8 3 10 -6 26 22 22 39 -2 6 1 7 5 3 7 -8 30 17 34 37 3 16 22 35 30 30 8 -5
56 43 53 53 -2 4 0 7 5 7 4 0 21 10 37 23 17 13 24 20 16 16 -9 -5 -12 -3 -7
5 4 6 12 9 17 6 5 -4 20 4 33 17 13 13 30 24 37 26 8 2 19 9 24 16 6 7 14 13
18 13 19 2 67 26 67 35 0 5 5 6 10 3 6 -3 10 -2 10 3 0 6 6 10 13 9 32 -1 48
4 42 13 -3 6 1 7 9 4 9 -3 16 -2 16 4 0 6 9 8 20 5 11 -3 20 -1 20 5 0 6 9 8
20 5 11 -3 20 -1 20 5 0 6 9 8 20 5 11 -3 20 -1 20 5 0 7 14 9 35 5 19 -3 35
-2 35 3 0 5 52 9 115 9 63 0 115 -4 115 -9z m-2179 -2123 c13 -16 12 -17 -3
-4 -10 7 -18 15 -18 17 0 8 8 3 21 -13z m3439 -106 c0 -1 -26 -27 -57 -57
l-58 -55 55 58 c50 53 60 62 60 54z"/>
<path d="M12139 2013 l-34 -38 38 34 c34 33 42 41 34 41 -2 0 -19 -17 -38 -37z"/>
</g>
</svg>
